<?xml version="1.0" encoding="utf-8"?>
<!-- Generator: Adobe Illustrator 17.1.0, SVG Export Plug-In . SVG Version: 6.00 Build 0)  -->
<!DOCTYPE svg PUBLIC "-//W3C//DTD SVG 1.1//EN" "http://www.w3.org/Graphics/SVG/1.1/DTD/svg11.dtd">
<svg version="1.1" xmlns="http://www.w3.org/2000/svg" xmlns:xlink="http://www.w3.org/1999/xlink" x="0px" y="0px"
	 viewBox="0 0 244 204" enable-background="new 0 0 244 204" xml:space="preserve">
<g id="Layer_1">
	<rect x="209" y="170" fill="#EFEFEF" width="32" height="31"/>
	<path fill="none" stroke="#808080" stroke-width="2" stroke-miterlimit="10" d="M238,202H6c-2.209,0-4-1.791-4-4V6
		c0-2.209,1.791-4,4-4h232c2.209,0,4,1.791,4,4v192C242,200.209,240.209,202,238,202z"/>
	<line fill="none" stroke="#808080" stroke-width="2" stroke-miterlimit="10" x1="2" y1="37" x2="241" y2="37"/>
	<line fill="none" stroke="#808080" stroke-width="2" stroke-miterlimit="10" x1="36" y1="38" x2="36" y2="201"/>
	<line fill="none" stroke="#808080" stroke-width="2" stroke-miterlimit="10" x1="71" y1="38" x2="71" y2="201"/>
	<line fill="none" stroke="#808080" stroke-width="2" stroke-miterlimit="10" x1="105" y1="38" x2="105" y2="201"/>
	<line fill="none" stroke="#808080" stroke-width="2" stroke-miterlimit="10" x1="139" y1="38" x2="139" y2="201"/>
	<line fill="none" stroke="#808080" stroke-width="2" stroke-miterlimit="10" x1="173" y1="38" x2="173" y2="201"/>
	<line fill="none" stroke="#808080" stroke-width="2" stroke-miterlimit="10" x1="208" y1="38" x2="208" y2="201"/>
	<line fill="none" stroke="#808080" stroke-width="2" stroke-miterlimit="10" x1="2" y1="70" x2="241" y2="70"/>
	<line fill="none" stroke="#808080" stroke-width="2" stroke-miterlimit="10" x1="2" y1="103" x2="241" y2="103"/>
	<line fill="none" stroke="#808080" stroke-width="2" stroke-miterlimit="10" x1="2" y1="136" x2="241" y2="136"/>
	<line fill="none" stroke="#808080" stroke-width="2" stroke-miterlimit="10" x1="2" y1="169" x2="241" y2="169"/>
	<rect x="3" y="38" fill="#EFEFEF" width="32" height="31"/>
	<rect x="72" y="38" fill="#EFEFEF" width="32" height="31"/>
	<rect x="37" y="38" fill="#EFEFEF" width="33" height="31"/>
</g>
<g id="Layer_2" display="none">
	<g display="inline">
		<rect x="36" y="37" fill="#50C6D4" width="35" height="33"/>
		<path fill="#42A1A8" d="M70,38v31H37V38H70 M72,36h-2H37h-2v2v31v2h2h33h2v-2V38V36L72,36z"/>
	</g>
	<g display="inline">
		<rect x="36" y="70" fill="#50C6D4" width="35" height="33"/>
		<path fill="#42A1A8" d="M70,71v31H37V71H70 M72,69h-2H37h-2v2v31v2h2h33h2v-2V71V69L72,69z"/>
	</g>
	<g display="inline">
		<rect x="36" y="103" fill="#50C6D4" width="35" height="33"/>
		<path fill="#42A1A8" d="M70,104v31H37v-31H70 M72,102h-2H37h-2v2v31v2h2h33h2v-2v-31V102L72,102z"/>
	</g>
	<g display="inline">
		<rect x="36" y="136" fill="#50C6D4" width="35" height="33"/>
		<path fill="#42A1A8" d="M70,137v31H37v-31H70 M72,135h-2H37h-2v2v31v2h2h33h2v-2v-31V135L72,135z"/>
	</g>
	<g display="inline">
		<rect x="36" y="169" fill="#50C6D4" width="35" height="33"/>
		<path fill="#42A1A8" d="M70,170v31H37v-31H70 M72,168h-2H37h-2v2v31v2h2h33h2v-2v-31V168L72,168z"/>
	</g>
</g>
<g id="Layer_3">
</g>
</svg>
