<svg xmlns="http://www.w3.org/2000/svg" xmlns:xlink="http://www.w3.org/1999/xlink" version="1.1" id="Layer_1" x="0px" y="0px" viewBox="0 0 160 32" enable-background="new 0 0 160 32" xml:space="preserve">
  <g>
    <path fill="#FFFFFF" d="M42.52 4.9h15.84v4.11h-11.25v4.26h9.899v4.11h-9.899v4.409h11.399v4.11H42.52V4.9z"/>
    <path fill="#FFFFFF" d="M61.975 9.82h4.56v2.28c1.051-1.35 2.4-2.58 4.71-2.58 3.45 0 5.46 2.28 5.46 5.97v10.41h-4.56v-8.97c0-2.16-1.021-3.27-2.76-3.27 -1.74 0-2.851 1.11-2.851 3.27v8.97h-4.56V9.82z"/>
    <path fill="#FFFFFF" d="M78.198 9.82h4.83l3.6 10.77 3.63-10.77h4.74l-6.33 16.199h-4.14L78.198 9.82z"/>
    <path fill="#FFFFFF" d="M95.654 17.949v-0.06c0-4.59 3.271-8.37 7.95-8.37 5.37 0 7.83 4.17 7.83 8.729 0 0.36-0.03 0.78-0.061 1.2h-11.189c0.45 2.07 1.89 3.15 3.93 3.15 1.53 0 2.64-0.48 3.9-1.65l2.609 2.311c-1.5 1.859-3.66 2.999-6.569 2.999C99.225 26.258 95.654 22.869 95.654 17.949zM106.994 16.599c-0.27-2.04-1.47-3.42-3.39-3.42 -1.89 0-3.12 1.35-3.479 3.42H106.994z"/>
    <path fill="#FFFFFF" d="M114.588 4h4.56v21.899h-4.56V4z"/>
    <path fill="#FFFFFF" d="M122.21 17.949v-0.06c0-4.62 3.721-8.37 8.73-8.37 4.979 0 8.669 3.69 8.669 8.31v0.06c0 4.62-3.72 8.369-8.729 8.369C125.9 26.258 122.21 22.569 122.21 17.949zM135.11 17.949v-0.06c0-2.37-1.71-4.44-4.23-4.44 -2.609 0-4.17 2.01-4.17 4.38v0.06c0 2.37 1.71 4.439 4.23 4.439C133.55 22.329 135.11 20.319 135.11 17.949z"/>
    <path fill="#FFFFFF" d="M142.58 9.82h4.56v2.31c1.109-1.5 2.64-2.61 5.01-2.61 3.75 0 7.319 2.94 7.319 8.31v0.06c0 5.37-3.51 8.31-7.319 8.31 -2.43 0-3.93-1.11-5.01-2.4v6.9h-4.56V9.82zM154.909 17.889v-0.06c0-2.67-1.8-4.439-3.93-4.439s-3.9 1.77-3.9 4.439v0.06c0 2.67 1.771 4.439 3.9 4.439S154.909 20.589 154.909 17.889z"/>
  </g>
  <g>
    <g>
      <path fill="#FFFFFF" d="M25.237 8.349L16 17.586 6.763 8.349C6.331 8.871 5.95 9.434 5.609 10.023l9.684 9.684C15.488 19.902 15.744 20 16 20s0.512-0.098 0.707-0.293l9.684-9.684C26.05 9.434 25.669 8.871 25.237 8.349z"/>
    </g>
    <g>
      <path fill="#FFFFFF" d="M4.669 19.916c0.236 0.68 0.526 1.334 0.875 1.953l4.542-4.542 -1.414-1.414L4.669 19.916z"/>
    </g>
    <g>
      <path fill="#FFFFFF" d="M23.328 15.914l-1.414 1.414 4.542 4.542c0.349-0.619 0.639-1.273 0.875-1.953L23.328 15.914z"/>
    </g>
    <g>
      <path fill="#FFFFFF" d="M16 0C7.178 0 0 7.178 0 16c0 8.822 7.178 16 16 16s16-7.178 16-16C32 7.178 24.822 0 16 0zM16 30C8.268 30 2 23.732 2 16S8.268 2 16 2s14 6.268 14 14S23.732 30 16 30z"/>
    </g>
  </g>
</svg>